<svg width="29" height="28" viewBox="0 0 29 28" fill="none" xmlns="http://www.w3.org/2000/svg">
<rect x="0.160004" width="28.1867" height="28" rx="4" fill="black"/>
<path d="M23.1089 19.4416C22.8291 19.2485 22.583 19.0113 22.38 18.7395C21.8941 18.191 21.2756 17.5108 20.1271 17.5108C18.9785 17.5108 18.3822 18.169 17.8742 18.7615C17.3662 19.3539 17.0348 19.7049 16.2839 19.7049C15.5329 19.7049 15.1574 19.288 14.6936 18.7615C14.2298 18.2349 13.6113 17.5108 12.4407 17.5108C11.2701 17.5108 10.6958 18.169 10.1878 18.7615C9.67979 19.3539 9.34847 19.7049 8.59751 19.7049C7.84655 19.7049 7.47106 19.288 7.00724 18.7615C6.69194 18.3478 6.29323 18.0041 5.8366 17.7522C5.61702 17.6431 5.35004 17.7315 5.24025 17.9497C5.13046 18.1678 5.21945 18.433 5.43904 18.5421C5.78583 18.7497 6.0925 19.0172 6.3446 19.3319C6.85259 19.9243 7.44894 20.5826 8.59751 20.5826C9.74608 20.5826 10.3424 19.9244 10.8504 19.3319C11.3584 18.7395 11.6897 18.3885 12.4407 18.3885C13.1917 18.3885 13.5672 18.8054 14.031 19.3319C14.4948 19.8585 15.1132 20.5826 16.2839 20.5826C17.4545 20.5826 18.0288 19.9244 18.5368 19.3319C19.0448 18.7395 19.3761 18.3885 20.1271 18.3885C20.878 18.3885 21.2535 18.8054 21.7173 19.3319C21.9748 19.6603 22.28 19.9486 22.6229 20.1876C22.8303 20.3209 23.1072 20.262 23.2414 20.0559C23.3756 19.85 23.3163 19.5749 23.1089 19.4416Z" fill="#EEEEEE"/>
<path d="M23.1089 16.1505C22.8291 15.9573 22.583 15.7202 22.38 15.4484C21.8941 14.8999 21.2756 14.2197 20.1271 14.2197C18.9785 14.2197 18.3822 14.8779 17.8742 15.4703C17.3662 16.0628 17.0348 16.4138 16.2839 16.4138C15.5329 16.4138 15.1574 15.9969 14.6936 15.4703C14.2298 14.9438 13.6113 14.2197 12.4407 14.2197C11.2701 14.2197 10.6958 14.8779 10.1878 15.4703C9.67979 16.0628 9.34847 16.4138 8.59751 16.4138C7.84655 16.4138 7.47106 15.9969 7.00724 15.4703C6.69194 15.0567 6.29323 14.7129 5.8366 14.461C5.61702 14.352 5.35004 14.4404 5.24025 14.6585C5.13046 14.8766 5.21945 15.1419 5.43904 15.2509C5.78583 15.4585 6.0925 15.7261 6.3446 16.0408C6.85259 16.6332 7.44894 17.2914 8.59751 17.2914C9.74608 17.2914 10.3424 16.6332 10.8504 16.0408C11.3584 15.4484 11.6897 15.0973 12.4407 15.0973C13.1917 15.0973 13.5672 15.5142 14.031 16.0408C14.4948 16.5674 15.1132 17.2914 16.2839 17.2914C17.4545 17.2914 18.0288 16.6332 18.5368 16.0408C19.0448 15.4484 19.3761 15.0973 20.1271 15.0973C20.878 15.0973 21.2535 15.5142 21.7173 16.0408C21.9748 16.3691 22.28 16.6575 22.6229 16.8965C22.8303 17.0298 23.1072 16.9708 23.2414 16.7648C23.3756 16.5589 23.3163 16.2838 23.1089 16.1505Z" fill="#EEEEEE"/>
<path d="M23.1089 12.6398C22.8291 12.4467 22.583 12.2095 22.38 11.9377C21.8941 11.3892 21.2756 10.709 20.1271 10.709C18.9785 10.709 18.3822 11.3672 17.8742 11.9597C17.3661 12.5521 17.0348 12.9031 16.2839 12.9031C15.5329 12.9031 15.1574 12.4862 14.6936 11.9597C14.2298 11.4331 13.6113 10.709 12.4407 10.709C11.2701 10.709 10.6958 11.3672 10.1878 11.9597C9.67979 12.5521 9.34847 12.9031 8.59751 12.9031C7.84655 12.9031 7.47106 12.4862 7.00724 11.9597C6.69194 11.546 6.29323 11.2023 5.8366 10.9504C5.61702 10.8413 5.35004 10.9297 5.24025 11.1478C5.13046 11.366 5.21945 11.6312 5.43904 11.7402C5.78583 11.9479 6.0925 12.2154 6.3446 12.5301C6.85259 13.1225 7.44894 13.7808 8.59751 13.7808C9.74608 13.7808 10.3424 13.1226 10.8504 12.5301C11.3584 11.9377 11.6897 11.5867 12.4407 11.5867C13.1917 11.5867 13.5672 12.0036 14.031 12.5301C14.4948 13.0567 15.1132 13.7808 16.2839 13.7808C17.4545 13.7808 18.0288 13.1226 18.5368 12.5301C19.0448 11.9377 19.3761 11.5867 20.1271 11.5867C20.878 11.5867 21.2535 12.0036 21.7173 12.5301C21.9748 12.8584 22.28 13.1468 22.6229 13.3858C22.8303 13.5191 23.1072 13.4602 23.2414 13.2541C23.3756 13.0482 23.3163 12.7731 23.1089 12.6398Z" fill="#EEEEEE"/>
<path d="M5.43921 8.44919C5.786 8.65682 6.09268 8.92434 6.34477 9.23906C6.85277 9.83147 7.44912 10.4897 8.59769 10.4897C9.74625 10.4897 10.3426 9.83151 10.8506 9.23906C11.3586 8.64666 11.6899 8.29561 12.4409 8.29561C13.1918 8.29561 13.5673 8.71251 14.0311 9.23906C14.495 9.76566 15.1134 10.4897 16.2841 10.4897C17.4547 10.4897 18.0289 9.83151 18.537 9.23906C19.045 8.64666 19.3763 8.29561 20.1272 8.29561C20.8782 8.29561 21.2537 8.71251 21.7175 9.23906C21.9749 9.56739 22.2801 9.85578 22.6231 10.0948C22.8305 10.2281 23.1074 10.1691 23.2415 9.96312C23.3757 9.75713 23.3164 9.48206 23.109 9.34876C22.8293 9.15562 22.5831 8.91846 22.3801 8.64666C21.8942 8.09814 21.2758 7.41797 20.1272 7.41797C18.9787 7.41797 18.3823 8.07618 17.8743 8.66862C17.3663 9.26103 17.035 9.61208 16.284 9.61208C15.5331 9.61208 15.1576 9.19518 14.6937 8.66862C14.2299 8.14203 13.6115 7.41797 12.4408 7.41797C11.2702 7.41797 10.696 8.07618 10.1879 8.66862C9.67992 9.26103 9.3486 9.61208 8.59764 9.61208C7.84669 9.61208 7.47127 9.19518 7.00741 8.66858C6.69212 8.25492 6.29341 7.91118 5.83678 7.65928C5.61719 7.55022 5.35022 7.63862 5.24042 7.85675C5.13063 8.07488 5.21967 8.34013 5.43921 8.44919Z" fill="#EEEEEE"/>
</svg>
