<svg width="29" height="28" viewBox="0 0 29 28" fill="none" xmlns="http://www.w3.org/2000/svg">
<rect x="0.160004" width="28.1867" height="28" rx="4" fill="black"/>
<path d="M15.1991 18.5977H16.0838V21H15.1991V18.5977Z" fill="#EEEEEE"/>
<path d="M13.4295 18.5977H14.3143V21H13.4295V18.5977Z" fill="#EEEEEE"/>
<path d="M17.7354 6H11.778C11.5337 6 11.3356 6.19676 11.3356 6.43945V21H12.5448V18.1582C12.5448 17.9155 12.7428 17.7188 12.9871 17.7188H16.5262C16.7705 17.7188 16.9686 17.9155 16.9686 18.1582V21H18.1778V6.43945C18.1778 6.19676 17.9797 6 17.7354 6ZM13.4295 16.4004C13.4295 16.6431 13.2315 16.8398 12.9871 16.8398C12.7428 16.8398 12.5448 16.6431 12.5448 16.4004V15.5215C12.5448 15.2788 12.7428 15.082 12.9871 15.082C13.2315 15.082 13.4295 15.2788 13.4295 15.5215V16.4004ZM13.4295 13.7637C13.4295 14.0064 13.2315 14.2031 12.9871 14.2031C12.7428 14.2031 12.5448 14.0064 12.5448 13.7637V12.8848C12.5448 12.6421 12.7428 12.4453 12.9871 12.4453C13.2315 12.4453 13.4295 12.6421 13.4295 12.8848V13.7637ZM15.1991 16.4004C15.1991 16.6431 15.001 16.8398 14.7567 16.8398C14.5124 16.8398 14.3143 16.6431 14.3143 16.4004V15.5215C14.3143 15.2788 14.5124 15.082 14.7567 15.082C15.001 15.082 15.1991 15.2788 15.1991 15.5215V16.4004ZM15.1991 13.7637C15.1991 14.0064 15.001 14.2031 14.7567 14.2031C14.5124 14.2031 14.3143 14.0064 14.3143 13.7637V12.8848C14.3143 12.6421 14.5124 12.4453 14.7567 12.4453C15.001 12.4453 15.1991 12.6421 15.1991 12.8848V13.7637ZM16.9686 16.4004C16.9686 16.6431 16.7705 16.8398 16.5262 16.8398C16.2819 16.8398 16.0838 16.6431 16.0838 16.4004V15.5215C16.0838 15.2788 16.2819 15.082 16.5262 15.082C16.7705 15.082 16.9686 15.2788 16.9686 15.5215V16.4004ZM16.9686 13.7637C16.9686 14.0064 16.7705 14.2031 16.5262 14.2031C16.2819 14.2031 16.0838 14.0064 16.0838 13.7637V12.8848C16.0838 12.6421 16.2819 12.4453 16.5262 12.4453C16.7705 12.4453 16.9686 12.6421 16.9686 12.8848V13.7637ZM13.4295 11.127C13.4295 11.3696 13.2315 11.5664 12.9871 11.5664C12.7428 11.5664 12.5448 11.3696 12.5448 11.127V10.248C12.5448 10.0054 12.7428 9.80859 12.9871 9.80859C13.2315 9.80859 13.4295 10.0054 13.4295 10.248V11.127ZM15.1991 11.127C15.1991 11.3696 15.001 11.5664 14.7567 11.5664C14.5124 11.5664 14.3143 11.3696 14.3143 11.127V10.248C14.3143 10.0054 14.5124 9.80859 14.7567 9.80859C15.001 9.80859 15.1991 10.0054 15.1991 10.248V11.127ZM16.9686 11.127C16.9686 11.3696 16.7705 11.5664 16.5262 11.5664C16.2819 11.5664 16.0838 11.3696 16.0838 11.127V10.248C16.0838 10.0054 16.2819 9.80859 16.5262 9.80859C16.7705 9.80859 16.9686 10.0054 16.9686 10.248V11.127ZM13.4295 8.49023C13.4295 8.73293 13.2315 8.92969 12.9871 8.92969C12.7428 8.92969 12.5448 8.73293 12.5448 8.49023V7.61133C12.5448 7.36863 12.7428 7.17188 12.9871 7.17188C13.2315 7.17188 13.4295 7.36863 13.4295 7.61133V8.49023ZM15.1991 8.49023C15.1991 8.73293 15.001 8.92969 14.7567 8.92969C14.5124 8.92969 14.3143 8.73293 14.3143 8.49023V7.61133C14.3143 7.36863 14.5124 7.17188 14.7567 7.17188C15.001 7.17188 15.1991 7.36863 15.1991 7.61133V8.49023ZM16.9686 8.49023C16.9686 8.73293 16.7705 8.92969 16.5262 8.92969C16.2819 8.92969 16.0838 8.73293 16.0838 8.49023V7.61133C16.0838 7.36863 16.2819 7.17188 16.5262 7.17188C16.7705 7.17188 16.9686 7.36863 16.9686 7.61133V8.49023Z" fill="#EEEEEE"/>
<path d="M21.8643 11.8594H19.0625V21H21.8643C22.1086 21 22.3067 20.8032 22.3067 20.5605V12.2988C22.3067 12.0561 22.1086 11.8594 21.8643 11.8594ZM21.127 17.5723C21.127 17.815 20.9289 18.0117 20.6846 18.0117C20.4403 18.0117 20.2422 17.815 20.2422 17.5723V16.6934C20.2422 16.4507 20.4403 16.2539 20.6846 16.2539C20.9289 16.2539 21.127 16.4507 21.127 16.6934V17.5723ZM21.127 14.9355C21.127 15.1782 20.9289 15.375 20.6846 15.375C20.4403 15.375 20.2422 15.1782 20.2422 14.9355V14.0566C20.2422 13.8139 20.4403 13.6172 20.6846 13.6172C20.9289 13.6172 21.127 13.8139 21.127 14.0566V14.9355Z" fill="#EEEEEE"/>
<path d="M7.64906 11.8594C7.40475 11.8594 7.20668 12.0561 7.20668 12.2988V20.5605C7.20668 20.8032 7.40475 21 7.64906 21H10.4508V11.8594H7.64906ZM9.27113 17.5723C9.27113 17.815 9.07306 18.0117 8.82875 18.0117C8.58444 18.0117 8.38637 17.815 8.38637 17.5723V16.6934C8.38637 16.4507 8.58444 16.2539 8.82875 16.2539C9.07306 16.2539 9.27113 16.4507 9.27113 16.6934V17.5723ZM9.27113 14.9355C9.27113 15.1782 9.07306 15.375 8.82875 15.375C8.58444 15.375 8.38637 15.1782 8.38637 14.9355V14.0566C8.38637 13.8139 8.58444 13.6172 8.82875 13.6172C9.07306 13.6172 9.27113 13.8139 9.27113 14.0566V14.9355Z" fill="#EEEEEE"/>
</svg>
