<svg width="29" height="28" viewBox="0 0 29 28" fill="none" xmlns="http://www.w3.org/2000/svg">
<rect x="0.160004" width="28.1867" height="28" rx="4" fill="black"/>
<path d="M23.1862 17.8049V18.7838C23.1862 19.4316 22.7528 19.9857 22.1455 20.2019C22.1458 20.2266 22.1464 20.2511 22.1464 20.2757V22.945C23.4092 22.6977 24.3611 21.6396 24.3611 20.3757V17.8048L23.1862 17.8049Z" fill="#EEEEEE"/>
<path d="M15.026 10.4483V9.42479C15.026 8.53881 14.6781 7.68007 14.046 7.00645C13.4543 6.37588 12.676 5.97522 11.835 5.86403C11.6488 5.694 11.3089 5.38379 10.968 5.07415C10.6733 4.80627 10.4376 4.59289 10.2673 4.43996C10.1696 4.35226 10.0877 4.2792 10.0297 4.22832C9.90263 4.11699 9.66638 3.90956 9.31632 4.04364L8.94167 4.18744L8.99083 6.38559L8.89851 6.44851C8.29607 6.85932 7.89255 7.49163 7.78887 8.18569L6.18185 9.19735L6.17647 9.89243C6.17263 10.4225 6.38829 10.9215 6.78398 11.2977C7.17982 11.6738 7.70699 11.881 8.26873 11.881H9.4925V12.9002C9.4925 13.4065 9.57867 13.9068 9.74825 14.3872L10.6554 16.9554V20.8565C9.70371 21.0676 8.99159 21.8751 8.98944 22.8364L8.98745 22.9983L12.4901 22.9987C12.586 22.133 13.2589 21.4262 14.1381 21.2289V20.5486C14.1381 18.6874 15.7425 17.1733 17.7147 17.1733H17.8012V18.282H17.7147C16.3904 18.282 15.3131 19.2988 15.3131 20.5486V22.2826H14.637C14.1722 22.2826 13.7813 22.5889 13.679 22.9989L21.0061 23V20.2758C21.0061 17.8557 20.0449 15.5464 18.2995 13.7734L15.026 10.4483Z" fill="#EEEEEE"/>
</svg>
