<svg width="29" height="28" viewBox="0 0 29 28" fill="none" xmlns="http://www.w3.org/2000/svg">
<rect x="0.160004" width="28.1867" height="28" rx="4" fill="black"/>
<path d="M14.1348 12.2415C14.3053 12.3043 14.4725 12.1507 14.416 11.9874C14.0282 10.8662 12.624 10.4479 11.3187 11.4427C10.632 11.966 10.374 12.0772 10.3675 12.08C10.8202 12.5046 11.3373 13.9294 12.4659 14.087C13.7091 14.2984 14.8094 13.1509 13.9092 12.6258C13.3171 12.2805 12.6201 12.0799 11.8729 12.0799C12.6562 11.9143 13.4382 11.9853 14.1348 12.2415Z" fill="#EEEEEE"/>
<path d="M19.7643 11.4426C17.511 9.72543 16.074 12.4334 16.9672 12.1649C17.6016 11.9743 18.2952 11.9328 18.9908 12.0799C17.8122 12.0799 16.7256 12.5867 16.0012 13.4116C16.0607 12.1152 16.1507 11.3038 16.255 10.7002C16.8571 10.6808 17.6596 10.2246 18.1003 9.42644C18.86 8.15082 18.5077 6.84289 18.3943 6.01758C17.8007 6.55993 15.2074 5.92444 14.1794 7.57717C13.7253 8.30725 13.8573 9.19567 14.335 9.8458C14.4862 10.0516 14.8478 9.95286 14.8581 9.70309C14.903 8.61656 15.4794 7.79566 16.5539 7.34098C16.0717 7.9271 15.7551 8.58331 15.5916 9.26154C15.3374 10.3181 15.0718 11.0111 14.9743 14.3786C14.9644 14.7201 15.2593 15.0028 15.6234 14.9985C15.887 14.9954 16.1128 14.8385 16.2142 14.6102C16.3684 14.263 16.6193 13.9036 17.0277 13.5743C17.4157 13.9767 18.0062 14.1909 18.6172 14.0869C19.741 13.93 20.2654 12.5021 20.7155 12.0798C20.7089 12.0771 20.4509 11.9659 19.7643 11.4426Z" fill="#EEEEEE"/>
<path d="M23.0766 15.6384C22.3722 15.19 21.6056 15.5096 21.2535 15.7003L16.8351 18.7342L14.248 18.7347L13.6013 18.128H15.9772C16.6917 18.128 17.492 17.6913 17.492 16.9141C17.492 16.089 16.6917 15.7003 15.9772 15.7003H15.0868C14.4254 15.7003 13.6525 15.7556 13.1075 15.4819C12.5897 15.2347 11.9935 15.0941 11.3571 15.0941C10.2883 15.0941 9.33179 15.4938 8.67633 16.1242L5.19334 19.341L9.07393 22.9817L10.3675 21.1614H16.48C17.1319 21.1614 17.7612 20.937 18.2485 20.5308L23.1208 16.4701C23.3917 16.2444 23.3764 15.8293 23.0766 15.6384Z" fill="#EEEEEE"/>
</svg>
